<svg version="1.2" xmlns="http://www.w3.org/2000/svg" viewBox="0 0 168 161" width="150" height="144"><defs><clipPath clipPathUnits="userSpaceOnUse" id="cp1"><path d="m73.67 63.33h60.43v69.57h-60.43z"/></clipPath><clipPath clipPathUnits="userSpaceOnUse" id="cp2"><path d="m40.1 48.67h25.57v13.33h-25.57z"/></clipPath><clipPath clipPathUnits="userSpaceOnUse" id="cp3"><path d="m81.67 23.9h10.66v27.43h-10.66z"/></clipPath></defs><style>.a{fill:#e5ffb8}.b{fill:#012c1b}</style><path class="a" d="m14.3 24c6-11.5 19.9-12.1 31.6-11.1 13 1.2 19.7-2.2 30.7-8.6 8.9-5.2 17.2-5 26.7-0.2 11.4 5.9 9 16.4 18.3 23.1 8.6 6.2 21.6 3.4 30.7 9.2 9.1 5.8 11.6 15.8 11.1 26.1-0.7 14.1-8 27.2-5.4 41.5 2.1 11.5 14.1 23.3 8.1 35.4-11.2 22.7-46.1 3.7-64.1 7-19.5 3.6-48.9 25.2-67.6 6-8.3-8.4-3.9-21.9-4-32.2-0.3-14.4-5.2-18.7-15.2-28.1-9.6-9-17.3-13.5-13.5-27.1 2.3-8.1 13.4-9.9 15.4-15.3 2.6-6.7-6.2-19.3-2.8-25.7z"/><g clip-path="url(#cp1)"><path class="b" d="m114.6 103c0.1 0.1 0.2 0.2 0.2 0.3 0.4 0.2 0.6 0.6 0.8 1q0.1 0.2 0.3 0.3 0.5 0.4 0.9 0.9c0.2 0.1 0.2 0.2 0.3 0.3 0.5 0.3 0.7 0.7 1 1.2 0.3 0.4 0.5 0.8 1 1q0 0 0 0c0.4 0.8 1.3 1.1 1.8 1.8 0.4 0.5 0.9 0.9 1.4 1.2 0.4 0.3 0.6 0.6 0.9 0.9 0.4 0.4 0.9 0.8 1.2 1.2 0.1 0.2 0.3 0.3 0.5 0.4 0.6 0.5 1 1.1 1.4 1.7 0.1 0.2 0.3 0.4 0.5 0.5 0.4 0.5 0.9 1 1.4 1.5q0.6 0.6 1.2 1.3 0.2 0.2 0.5 0.5c0.5 0.5 0.9 1.1 1.1 1.7 0.1 0.5 0 0.9-0.3 1.3q-0.4 0.6-1.1 1c-0.3 0.2-0.7 0.5-1 0.7q-0.5 0.4-1 0.8-1 0.6-1.8 1.5c-0.6 0.6-1.2 1.2-1.9 1.8q-1.2 0.9-2.3 2c-0.5 0.5-1.1 1.1-1.7 1.5-0.5 0.4-0.9 0.8-1.4 1-0.2 0.1-0.4 0.2-0.5 0.3-0.2 0.3-0.5 0.3-0.8 0.2-0.3-0.1-0.7-0.3-1-0.5-0.6-0.4-1-0.9-1.5-1.3q-0.1-0.1-0.1-0.1c-0.1-0.6-0.6-0.8-0.9-1.2-0.3-0.4-0.7-0.7-1-1-0.5-0.5-1-1-1.2-1.7-0.2-0.5-0.5-0.7-0.9-1q-0.7-0.4-0.9-1.2c-0.1-0.2-0.2-0.4-0.4-0.6-0.4-0.5-0.9-0.8-1.3-1.4-0.1-0.4-0.5-0.6-0.7-0.9q-0.7-0.9-1.6-1.6-0.1 0-0.2-0.1-0.4-0.5-0.8-1-0.3-0.5-0.6-1c0 0 0-0.1-0.1-0.1-0.6-0.6-1-1.3-1.5-1.9-0.3-0.2-0.5-0.5-0.8-0.8q-0.5-0.5-1-1-0.5-0.5-0.9-0.9-0.6-0.7-1.2-1.4c-0.2-0.1-0.3-0.1-0.4 0.1q-0.7 0.9-1.2 2c0 0.3-0.2 0.5-0.4 0.6-0.3 0.4-0.6 0.7-0.9 1-0.2 0.2-0.3 0.5-0.4 0.7q-0.2 0.3-0.5 0.5c-0.8 0.8-1.3 1.7-1.9 2.6-0.4 0.6-0.6 1.2-1.1 1.7-0.2 0.2-0.3 0.6-0.5 0.8-0.2 0.3-0.4 0.6-0.6 0.9-0.3 0.4-0.8 0.8-1.1 1.2-0.6 0.7-1.3 0.9-2 1.2-0.7 0.3-1.2 0.1-1.7-0.5q-0.6-0.8-0.9-1.8c-0.1-0.1-0.1-0.2-0.1-0.3 0-0.3-0.1-0.5-0.3-0.7-0.3-0.4-0.5-0.9-0.6-1.4q-0.2-0.6-0.3-1.2-0.2-0.5-0.3-1.2c0-0.4-0.2-0.7-0.4-1.1q-0.4-0.6-0.3-1.3 0.1-0.7-0.1-1.3-0.2-0.7-0.4-1.4-0.1-0.5-0.2-1c-0.1-0.2-0.1-0.4-0.1-0.5 0-1.1-0.2-2.2-0.4-3.3-0.1-0.9-0.3-1.8-0.4-2.7-0.1-0.2-0.2-0.4-0.2-0.6-0.1-0.3-0.1-0.6-0.1-0.9q-0.1-0.4-0.2-0.7c-0.2-0.5-0.4-1-0.4-1.7-0.1-0.6-0.3-1.2-0.5-1.8-0.1-0.4-0.1-0.9-0.2-1.4q0-0.3-0.1-0.6c-0.1-0.4-0.1-0.9-0.3-1.4-0.3-0.9-0.4-1.8-0.5-2.8q-0.1-1-0.2-2.1-0.1-0.1-0.1-0.2c-0.4-1.2-0.5-2.4-0.6-3.7-0.1-1-0.1-2.1-0.5-3.2-0.1-0.2-0.1-0.5-0.1-0.8 0.1-0.6 0-1.1-0.2-1.7-0.1-0.4-0.3-0.9-0.2-1.4 0-0.4-0.1-0.7-0.2-1.1-0.2-0.7-0.1-1.4-0.2-2q-0.1-1.1-0.2-2.2-0.1-0.2-0.1-0.4c0-0.7 0-1.4-0.2-2.1-0.1-0.2-0.1-0.4-0.1-0.6q-0.2-0.6-0.4-1.1-0.1-0.3-0.1-0.5c0-0.4 0-0.9 0-1.3q0-0.3-0.1-0.6-0.2-1-0.5-2c-0.2-0.4-0.1-0.9 0.1-1.3q0.1-0.2 0.2-0.5c0-1 1-1.8 2-1.4q1.3 0.6 2.7 0.9 0.2 0.1 0.4 0.3 1.2 0.9 2.3 1.7c0.1 0.1 0.2 0.2 0.4 0.2q0.9 0.2 1.7 0.7 0.2 0.1 0.3 0.2c0.6 0.3 1.2 0.6 1.8 0.8 0.4 0.1 0.8 0.3 1.1 0.5q0.4 0.3 0.8 0.4c0.5 0.2 0.9 0.6 1.4 0.8q0.2 0.1 0.4 0.2c0.5 0.2 1 0.4 1.5 0.8 0.2 0.2 0.4 0.3 0.7 0.4 0.4 0.3 0.8 0.5 1.3 0.8 0.3 0.1 0.6 0.4 1.1 0.5 0.4 0 0.7 0.3 1 0.5q0.5 0.2 0.9 0.4c0.4 0.1 0.8 0.3 1.1 0.5 0.4 0.1 0.7 0.4 1 0.6 0.5 0.3 1 0.5 1.5 0.8 0.4 0.3 0.9 0.5 1.2 1 0.2 0.2 0.5 0.3 0.7 0.4 0.3 0.2 0.7 0.3 1.1 0.5q0.5 0.2 0.9 0.5 0.5 0.3 1 0.7c0.7 0.5 1.4 0.9 2.2 1 0.3 0.1 0.5 0.2 0.7 0.4 0.3 0.2 0.6 0.4 0.9 0.6q0 0.1 0.1 0.1c0.5 0 0.8 0.4 1.2 0.6q0.1 0.1 0.2 0.1 1.3 0.4 2.5 1c0.1 0.1 0.2 0.1 0.4 0.2q0.6 0.3 1.3 0.6c0.1 0.1 0.2 0.1 0.2 0.1 0.7 0 1.1 0.3 1.6 0.6 0.2 0.2 0.4 0.2 0.6 0.3q0.7 0.3 1.4 0.6c0.2 0.1 0.4 0.3 0.7 0.4 0.1 0 0.2 0.1 0.3 0.1 0.7 0.2 1.2 0.6 1.8 1 0.1 0 0.2 0.1 0.3 0.1 0.6 0 1 0.3 1.4 0.5 0.5 0.2 0.9 0.7 1.5 0.7 0.3 0.1 0.6 0.3 0.8 0.4q1.1 0.7 2.1 1.4c0.5 0.3 1.1 0.6 1.7 0.7 0.2 0 0.3 0.1 0.4 0.1 0.5 0.2 0.8 0.6 1.2 1q0.1 0.2 0.4 0.3c0.2 0.1 0.4 0.2 0.3 0.5 0.4 0.2 0.8 0.3 1 0.7 0.1 0.1 0.3 0.2 0.4 0.2 0.2 0.1 0.4 0.2 0.5 0.4q0.1 0.1 0.2 0.2c0.4 0.5 0.3 1.1-0.1 1.6-0.5 0.6-1.1 1-1.9 1.2-0.2 0-0.4 0.1-0.6 0.3-0.5 0.4-1.1 0.7-1.8 0.9-0.6 0.2-1.2 0.5-1.6 1-0.4 0.3-0.7 0.5-1.2 0.6-0.4 0.1-0.8 0.3-1.2 0.5q-0.7 0.4-1.4 0.7c-0.2 0-0.4 0.1-0.5 0.1-0.6-0.1-1 0.2-1.4 0.4q-0.7 0.2-1.4 0.5c-0.5 0.1-1.1 0.1-1.6 0.2-0.2 0-0.4 0.1-0.6 0.2q-0.7 0.3-1.5 0.6-0.1 0-0.2 0-0.6-0.2-1.2 0.2c-0.2 0.2-0.4 0.3-0.7 0.4z"/></g><g clip-path="url(#cp2)"><path class="b" d="m41.2 49.8c0.7 0.1 1.3 0.1 1.8 0.2q0.2 0 0.4 0.1c0.2 0.1 0.3 0.2 0.6 0.1q0 0 0.1 0 0.8 0.2 1.6 0.5 0.5 0.2 0.9 0.5c0.2 0.2 0.5 0.3 0.7 0.4q0.2 0.1 0.3 0.2c0.2 0.3 0.5 0.5 0.8 0.4 0.1-0.1 0.3 0.1 0.4 0.2q0.3 0.1 0.5 0.2c0.1 0.1 0.3 0.1 0.4 0.2 0.5 0.4 1.1 0.5 1.7 0.7 0.6 0.1 1.2 0.3 1.8 0.6 0.6 0.4 1.2 0.8 1.9 1 0.4 0.2 0.7 0.4 1 0.6 0.3 0.1 0.5 0.2 0.7 0.2 0.7 0 1.2 0.2 1.7 0.6 0.1 0.1 0.2 0.2 0.3 0.2 0.5 0 1 0.3 1.4 0.7q0 0 0 0.1c0.6 0.2 1.2 0.4 1.7 0.7q0.6 0.3 1.1 0.5c0.3 0.1 0.5 0.4 0.8 0.7 0 0 0 0.1 0.1 0.1 0.4 0.3 0.5 0.7 0.6 1.2 0.1 0.5-0.1 0.9-0.5 1.2q0 0-0.1 0-0.6 0-1.2-0.1c-0.4 0-0.7-0.3-1-0.3-0.5-0.1-0.8-0.4-1.2-0.5-0.2-0.1-0.4-0.2-0.5-0.2q-0.8 0-1.5-0.3-0.2-0.1-0.4-0.1c-0.3-0.1-0.6-0.2-0.8-0.4-0.2-0.1-0.4-0.1-0.6-0.2q-0.3-0.1-0.5-0.2-0.3-0.1-0.6-0.2-0.3-0.2-0.6-0.4c-0.3-0.2-0.5-0.4-0.9-0.4-0.1 0-0.2-0.2-0.4-0.2-0.2-0.1-0.4-0.2-0.6-0.3q-0.6-0.1-1.3-0.2c-0.3-0.1-0.6-0.3-0.9-0.6-0.2-0.3-0.5-0.4-0.9-0.4q-0.1 0-0.3 0c-0.3-0.1-0.6-0.2-0.9-0.3-0.3-0.1-0.5-0.2-0.7-0.3-0.3-0.2-0.6-0.5-0.9-0.5-0.5-0.2-0.9-0.5-1.3-0.7-0.5-0.3-1-0.7-1.5-1-0.3-0.2-0.7-0.3-1-0.4-0.4-0.2-0.7-0.5-1-0.8-0.3-0.2-0.5-0.4-0.8-0.6-0.5-0.2-0.8-0.6-1-1.1 0-0.2-0.2-0.4-0.3-0.5-0.2-0.3-0.2-0.5 0.1-0.6 0.3-0.1 0.6-0.2 0.8-0.3z"/></g><path class="b" d="m65.9 83.1c0 0.5-0.3 0.8-0.6 1.1-0.2 0.3-0.5 0.6-0.7 0.9q-0.4 0.6-1.1 0.9c-0.1 0-0.2 0.1-0.2 0.2q-0.5 0.5-1 1.1 0 0-0.1 0.1c0 0.4-0.2 0.5-0.4 0.5q-0.3 0.1-0.6 0.2-0.6 0.1-0.9 0.6c-0.2 0.3-0.6 0.5-0.9 0.7-0.5 0.2-0.9 0.5-1.1 1-0.3 0.4-0.7 0.6-1.1 0.9-0.2 0.1-0.4 0.3-0.6 0.5q-0.5 0.3-1 0.6c-0.5 0.4-1 0.8-1.4 1.3-0.1 0.2-0.2 0.4-0.5 0.5q-0.1 0-0.1 0c-0.7 0.6-1.5 0.9-2.2 1.4q-0.3 0.2-0.5 0.4c-0.2 0.2-0.5 0.2-0.7 0.3q-0.5 0.3-0.9 0.7c-0.3 0.3-0.6 0.5-1 0.7-0.3 0.1-0.7 0.4-1 0.6-0.3 0.1-0.7 0.2-1 0.4-0.2 0-0.3-0.1-0.2-0.2 0-0.2 0-0.4 0.1-0.6q0.4-0.8 0.9-1.6c0-0.2 0.1-0.3 0.1-0.4q0.5-0.8 1.1-1.4c0.2-0.1 0.2-0.3 0.3-0.4q0.2-0.3 0.4-0.6 0.2-0.3 0.5-0.6c0.1-0.2 0.3-0.4 0.5-0.6 0.3-0.2 0.6-0.6 1-0.8 0.2-0.1 0.3-0.3 0.5-0.5 0.3-0.4 0.6-0.8 1-1.1 0.5-0.3 1.1-0.5 1.5-1 0 0 0.1-0.1 0.2-0.1 0.4 0 0.6-0.3 0.8-0.5q0.6-0.5 1.2-1 0.1-0.1 0.2-0.1 1-0.3 1.7-1.1 0.4-0.4 0.8-0.5c0.3-0.1 0.5-0.2 0.5-0.4 0-0.1 0.1-0.2 0.1-0.2q0.6-0.5 1.2-0.9c0.6-0.4 1.2-0.9 1.8-1.3 0.4-0.3 0.9-0.4 1.3-0.7 0.1-0.1 0.3-0.1 0.4-0.1q0.1 0 0.3-0.1c0.3-0.3 0.8-0.3 1.1 0.1q0 0 0.1 0 0.1 0.6 0.2 1.1z"/><path class="b" d="m49.4 34.9c0.2-0.1 0.3-0.3 0.5-0.2 0.3 0 0.4-0.2 0.4-0.3 0.2-0.1 0.4-0.1 0.7-0.1 0.5 0.4 1.1 0.8 1.6 1.3q0.1 0 0.2 0.1c0.3 0.1 0.6 0.3 0.8 0.6 0.1 0.3 0.3 0.4 0.5 0.6q0.7 0.9 1.5 1.7 0.1 0.1 0.2 0.2c0 0.5 0.4 0.7 0.7 0.9q0.2 0 0.3 0.2 0.3 0.5 0.7 1 0.3 0.4 0.7 0.5c0.2 0.1 0.4 0.2 0.5 0.3 0.3 0.5 0.8 0.8 1.2 1.3q0.1 0.1 0.2 0.1c0.4 0.3 0.6 0.6 0.7 1 0.1 0.3 0.3 0.6 0.5 0.8 0.5 0.4 1 0.9 1.6 1.1q0.1 0 0.2 0.1 0.3 0.6 0.7 1.1c0.2 0.2 0.3 0.4 0.5 0.5 0.6 0.2 1.1 0.7 1.5 1.1 0.2 0.2 0.4 0.5 0.6 0.6 0.3 0.3 0.4 0.7 0.5 1 0.2 0.5 0.4 1 0.5 1.4q0 0.1 0 0.2-0.1 0.4-0.3 0.7c-0.2 0.3-0.4 0.5-0.7 0.3q-0.1-0.1-0.2 0c-0.4 0.1-0.7-0.1-1-0.4-0.4-0.4-0.9-0.8-1.4-1-0.5-0.3-0.8-0.6-1.1-1-0.4-0.3-0.7-0.6-1.1-0.8-0.2-0.1-0.4-0.3-0.6-0.5q-0.6-0.6-1.2-1.2c-0.4-0.4-0.8-0.8-1.1-1.2-0.5-0.7-1.2-1.3-1.9-1.9-0.1-0.1-0.2-0.3-0.3-0.4-0.1-0.5-0.5-0.7-0.8-1q-0.2-0.2-0.4-0.4c-0.5-0.7-0.9-1.4-1.6-1.8-0.2-0.2-0.4-0.4-0.6-0.6q-0.1-0.1-0.3-0.2c-0.1-0.1-0.3-0.2-0.3-0.3-0.3-0.6-0.8-1-1.2-1.4q-0.2-0.3-0.4-0.5-0.3-0.5-0.6-0.9c-0.4-0.6-0.7-1.2-0.8-1.9 0-0.3-0.1-0.5-0.1-0.7z"/><g clip-path="url(#cp3)"><path class="b" d="m91.5 23.9c0.2 0.2 0.1 0.5 0 0.7q-0.1 0.5-0.2 1.1c-0.1 0.2-0.3 0.5-0.3 0.8-0.2 0.3-0.3 0.7-0.3 1 0 0.4-0.1 0.8-0.3 1.1-0.1 0.2-0.1 0.4-0.2 0.6-0.2 0.4-0.2 0.8-0.5 1.2-0.1 0.2-0.2 0.4-0.3 0.6-0.1 0.4-0.3 0.9-0.5 1.3q-0.1 0.5-0.1 1.1-0.1 0.9-0.1 1.8 0 0 0 0.1-0.2 0.6-0.5 1.2c0 0.1-0.1 0.2-0.2 0.3 0 0.5-0.1 0.8-0.3 1.2-0.4 0.5-0.5 1.2-0.6 1.8 0 0.1 0 0.2-0.1 0.3-0.2 0.3-0.2 0.7-0.2 1-0.1 0.6-0.3 1.2-0.5 1.8 0 0.1-0.1 0.2-0.1 0.4 0 0.2-0.1 0.5-0.2 0.7q-0.1 0-0.1 0.2c0 0.4-0.2 0.7-0.4 1.1q-0.1 0.3-0.2 0.6-0.1 0.5-0.2 1 0 0.1-0.1 0.1c-0.4 0.4-0.6 1-0.8 1.5q-0.2 0.5-0.5 0.9c-0.2 0.2-0.3 0.5-0.5 0.7-0.1 0.2-0.4 0.4-0.7 0.3-0.1 0-0.2-0.1-0.2-0.2q0-0.5 0-1c0-0.5 0.1-0.9 0.1-1.4 0-0.1 0-0.3 0.1-0.4 0.1-0.2 0.1-0.5 0.1-0.7q0.2-1.1 0.4-2.2c0.1-0.4 0.3-0.8 0.4-1.2q0.2-0.4 0.4-0.9c0.1-0.4 0.1-0.8 0.2-1.2q0.1-0.9 0.2-1.9 0-0.1 0-0.3c-0.2-0.6 0-1.1 0.3-1.6 0.1-0.2 0.2-0.5 0.3-0.8 0-0.2 0.1-0.3 0.1-0.4 0.3-0.3 0.3-0.6 0.4-1 0.1-0.6 0.2-1.2 0.5-1.8 0.2-0.5 0.2-1 0.4-1.5 0.2-0.6 0.4-1.2 0.9-1.7 0.1-0.1 0.2-0.4 0.2-0.6 0.1-0.4 0.2-0.7 0.5-1 0.3-0.3 0.4-0.6 0.6-1q0.2-0.3 0.4-0.5c0.1-0.2 0.2-0.4 0.4-0.6 0.1-0.3 0.3-0.5 0.4-0.7q0.9-0.9 1.7-1.8 0.1-0.1 0.2-0.1z"/></g><path class="b" d="m107.5 47.8q-0.1 0.1-0.2 0.3c0 0-0.1 0.1-0.1 0.2 0 0.3-0.1 0.5-0.4 0.8q-0.4 0.4-0.7 0.8c-0.5 0.7-1.2 1.1-1.8 1.6-0.4 0.3-0.8 0.7-1.1 1-0.5 0.4-0.9 0.7-1.3 1.1-0.2 0.2-0.4 0.4-0.6 0.7-0.1 0-0.1 0.1-0.2 0.1-0.4 0.2-0.6 0.6-1 0.8-0.1 0.2-0.3 0.4-0.4 0.6-0.3 0.2-0.6 0.3-0.9 0.6-0.4 0.3-0.7 0.6-1.1 0.9q-0.5 0.6-1.1 1.1c0 0-0.1 0-0.1 0-0.2 0.5-0.7 0.6-1.1 0.7-0.2 0.2-0.5 0.4-0.7 0.5-0.6 0.3-1.2 0.6-1.8 0.3-0.1 0-0.2-0.1-0.3-0.2 0-0.3-0.1-0.5-0.1-0.8 0-0.2 0.2-0.4 0.3-0.5 0.2-0.2 0.4-0.5 0.7-0.5q0 0 0 0c0.5-0.5 0.9-0.9 1.3-1.3 0.2-0.2 0.4-0.4 0.7-0.5 0.3-0.2 0.6-0.5 0.8-0.7 0.2-0.3 0.3-0.7 0.7-0.8 0.1 0 0.2-0.1 0.3-0.2q0.6-0.8 1.5-1.5c0.4-0.3 0.7-0.5 1-0.9 0.2-0.3 0.5-0.6 0.8-0.8 0.4-0.4 0.8-0.8 1.2-1.2 0.1-0.2 0.3-0.2 0.5-0.3q0.7-0.5 1.3-1.3 0.3-0.4 0.8-0.6c0.6-0.3 1.2-0.5 1.7-1 0.1-0.1 0.2-0.1 0.4-0.2q0.3-0.2 0.7-0.4 0.5-0.2 1-0.5c0.3-0.1 0.6-0.3 0.9-0.4q0.9-0.5 1.9-0.9c0.1-0.1 0.2-0.1 0.3-0.1 0 0.1 0.1 0.2 0.1 0.3q0 0.1-0.1 0.2c-0.2 0.3-0.3 0.7-0.7 0.9q-0.1 0-0.2 0.1c-0.3 0.4-0.7 0.7-1.1 0.8-0.2 0-0.3 0.1-0.4 0.3-0.2 0.4-0.4 0.7-0.9 0.7-0.2 0-0.4 0.1-0.5 0.2z"/><path class="b" d="m88.1 27.9q0 0 0 0 0 0 0 0 0 0-0.1 0 0.1 0 0.1 0z"/></svg>